name analog
datacolumns 19
datarows 46
range 0.1465 0.169
endheader
time	ground_force_vx	ground_force_vy	ground_force_vz	ground_force_px	ground_force_py	ground_force_pz	l_ground_force_vx	l_ground_force_vy	l_ground_force_vz	l_ground_force_px	l_ground_force_py	l_ground_force_pz	ground_torque_x	ground_torque_y	ground_torque_z	l_ground_torque_x	l_ground_torque_y	l_ground_torque_z
0.1465	-0.0	-0.0	-0.0	0.1064518764615058	12.1561861038208	-312.1991882324219	-0.8155611753463745	-16.499067306518555	-333.4398193359375	-0.0	-0.0	-0.0	-0.0	-0.0	-0.0	82352.71875	771.4295043945312	-5522.28271484375
0.147	-0.0	-0.0	-0.0	0.1235537305474281	11.85434341430664	-311.6406555175781	-0.6925915479660034	-15.969205856323242	-333.936279296875	-0.0	-0.0	-0.0	-0.0	-0.0	-0.0	82227.75	999.6978759765624	-5409.12060546875
0.1475	-0.0	-0.0	-0.0	0.1613122075796127	11.45997142791748	-310.6483764648437	-0.6039432287216187	-16.040632247924805	-332.3113708496094	-0.0	-0.0	-0.0	-0.0	-0.0	-0.0	82164.40625	679.737060546875	-5241.27490234375
0.148	-0.0	-0.0	-0.0	0.5352630615234375	11.514837265014648	-310.79833984375	-0.1774215698242187	-15.809581756591797	-333.5887451171875	-0.0	-0.0	-0.0	-0.0	-0.0	-0.0	82058.171875	947.5043334960938	-5408.66650390625
0.1485	-0.0	-0.0	-0.0	0.356842041015625	10.950490951538086	-309.43536376953125	-0.1985882520675659	-15.826394081115724	-331.8934326171875	-0.0	-0.0	-0.0	-0.0	-0.0	-0.0	82205.3671875	422.3532104492188	-5217.9541015625
0.149	-0.0	-0.0	-0.0	0.5521470904350281	11.052169799804688	-309.5193176269531	-0.0382845140993595	-15.821670532226562	-331.1942138671875	-0.0	-0.0	-0.0	-0.0	-0.0	-0.0	82261.484375	325.7176208496094	-5260.20263671875
0.1495	-0.0	-0.0	-0.0	1.1597366333007812	11.124492645263672	-309.73883056640625	0.155699998140335	-15.83120822906494	-332.260498046875	-0.0	-0.0	-0.0	-0.0	-0.0	-0.0	82325.2734375	311.4486999511719	-5213.5810546875
0.15	-0.0	-0.0	-0.0	0.6801645755767822	10.818267822265623	-308.8997802734375	0.5322647094726562	-15.40119743347168	-330.9749450683594	-0.0	-0.0	-0.0	-0.0	-0.0	-0.0	82263.265625	182.6131896972656	-5081.6630859375
0.1505	-0.0	-0.0	-0.0	0.8529407382011414	10.62318515777588	-309.60675048828125	0.4767698049545288	-15.3349027633667	-331.7593994140625	-0.0	-0.0	-0.0	-0.0	-0.0	-0.0	82243.703125	110.6302490234375	-5135.43505859375
0.151	-0.0	-0.0	-0.0	1.037300705909729	10.92984390258789	-310.0262145996094	1.1036232709884644	-14.975764274597168	-331.69403076171875	-0.0	-0.0	-0.0	-0.0	-0.0	-0.0	82306.5	7.240634918212891	-5209.310546875
0.1515	-0.0	-0.0	-0.0	0.8028945922851562	11.091693878173828	-310.485107421875	1.2089974880218506	-15.03739070892334	-331.7588806152344	-0.0	-0.0	-0.0	-0.0	-0.0	-0.0	82334.5703125	-150.5465850830078	-5029.31787109375
0.152	-0.0	-0.0	-0.0	0.908577561378479	10.9232816696167	-311.1134033203125	1.0578161478042605	-14.789060592651367	-332.6505126953125	-0.0	-0.0	-0.0	-0.0	-0.0	-0.0	82507.328125	-158.62911987304688	-4981.07861328125
0.1525	-0.0	-0.0	-0.0	0.7793219089508057	11.237586975097656	-311.9228820800781	1.3143248558044434	-14.3173828125	-332.0155334472656	-0.0	-0.0	-0.0	-0.0	-0.0	-0.0	82864.765625	-234.87649536132807	-4905.08056640625
0.153	-0.0	-0.0	-0.0	1.0051990747451782	10.777234077453612	-310.7038269042969	1.5642749071121216	-14.452380180358888	-332.962646484375	-0.0	-0.0	-0.0	-0.0	-0.0	-0.0	83041.3671875	-658.864013671875	-4824.4443359375
0.1535	-0.0	-0.0	-0.0	1.1351133584976196	10.898509979248049	-314.39453125	1.45175302028656	-13.754338264465332	-334.3598022460937	-0.0	-0.0	-0.0	-0.0	-0.0	-0.0	83327.5234375	-649.2078857421875	-4759.53466796875
0.154	-0.0	-0.0	-0.0	0.6568725109100342	10.849517822265623	-315.22979736328125	1.7016329765319824	-13.352631568908691	-333.34454345703125	-0.0	-0.0	-0.0	-0.0	-0.0	-0.0	83274.8203125	-863.0452270507812	-4732.2490234375
0.1545	-0.0	-0.0	-0.0	0.3643620610237121	11.084383964538574	-316.2875366210937	1.9271296262741089	-13.34499454498291	-335.0592041015625	-0.0	-0.0	-0.0	-0.0	-0.0	-0.0	83323.5	-669.8250732421875	-4740.359375
0.155	-0.0	-0.0	-0.0	-0.1392149925231933	11.198355674743652	-316.865966796875	2.113077402114868	-13.329427719116213	-336.5539245605469	-0.0	-0.0	-0.0	-0.0	-0.0	-0.0	83227.25	-966.8883056640624	-4791.42578125
0.1555	-0.0	-0.0	-0.0	-0.3980845808982849	11.602927207946776	-316.80242919921875	1.9516372680664065	-13.112382888793944	-334.1648864746094	-0.0	-0.0	-0.0	-0.0	-0.0	-0.0	83705.90625	-1039.2606201171875	-4723.84765625
0.156	-0.0	-0.0	-0.0	-0.6500376462936401	11.691980361938477	-317.3828125	1.4257129430770874	-12.983287811279297	-333.1156311035156	-0.0	-0.0	-0.0	-0.0	-0.0	-0.0	83549.359375	-1037.392822265625	-4680.72802734375
0.1565	-0.0	-0.0	-0.0	-0.5252997279167175	11.6344575881958	-318.8820495605469	1.6283541917800903	-12.604522705078123	-332.8270874023437	-0.0	-0.0	-0.0	-0.0	-0.0	-0.0	83238.0390625	-1098.776611328125	-4832.0048828125
0.157	-0.0	-0.0	-0.0	-0.7452275156974792	11.518994331359863	-319.4210205078125	1.435075283050537	-12.484625816345217	-333.6252136230469	-0.0	-0.0	-0.0	-0.0	-0.0	-0.0	83468.3359375	-1194.4609375	-4729.2353515625
0.1575	-0.0	-0.0	-0.0	-0.9392325282096864	12.0169095993042	-322.5999450683594	1.5393643379211426	-12.630001068115234	-333.5013732910156	-0.0	-0.0	-0.0	-0.0	-0.0	-0.0	83581.2265625	-1496.6522216796875	-4793.71337890625
0.158	-0.0	-0.0	-0.0	-1.690384864807129	11.912226676940918	-322.1620178222656	1.3882339000701904	-12.775642395019531	-333.21319580078125	-0.0	-0.0	-0.0	-0.0	-0.0	-0.0	83438.1953125	-1368.4119873046875	-4912.44384765625
0.1585	-0.0	-0.0	-0.0	-1.4698991775512695	11.881290435791016	-323.91119384765625	1.1110056638717651	-12.45758056640625	-335.429443359375	-0.0	-0.0	-0.0	-0.0	-0.0	-0.0	83712.921875	-1201.487060546875	-5003.8173828125
0.159	-0.0	-0.0	-0.0	-1.256489634513855	12.164416313171388	-324.55743408203125	1.2419509887695312	-12.729835510253906	-335.01861572265625	-0.0	-0.0	-0.0	-0.0	-0.0	-0.0	83848.2265625	-1389.062255859375	-4926.5810546875
0.1595	-0.0	-0.0	-0.0	-1.6366429328918457	11.691495895385742	-326.3860778808594	1.3852046728134155	-12.703030586242676	-335.0177917480469	-0.0	-0.0	-0.0	-0.0	-0.0	-0.0	83826.515625	-1310.49853515625	-4852.888671875
0.16	-0.0	-0.0	-0.0	-1.4273681640625	12.137069702148438	-325.4002685546875	1.1838053464889526	-12.480816841125488	-336.6423034667969	-0.0	-0.0	-0.0	-0.0	-0.0	-0.0	83781.0859375	-1556.0711669921875	-4931.669921875
0.1605	-0.0	-0.0	-0.0	-1.9498157501220703	12.195599555969238	-327.93243408203125	1.1684529781341553	-12.468503952026367	-334.83642578125	-0.0	-0.0	-0.0	-0.0	-0.0	-0.0	83526.3828125	-1499.1151123046875	-4827.4013671875
0.161	-0.0	-0.0	-0.0	-2.365077257156372	12.387129783630373	-328.97528076171875	1.4496437311172483	-11.703670501708984	-334.89599609375	-0.0	-0.0	-0.0	-0.0	-0.0	-0.0	83572.609375	-1511.8466796875	-4757.607421875
0.1615	-0.0	-0.0	-0.0	-3.0180106163024902	12.241130828857422	-329.51025390625	1.390986680984497	-11.820091247558594	-333.3874206542969	-0.0	-0.0	-0.0	-0.0	-0.0	-0.0	83402.25	-1438.7227783203125	-4847.33837890625
0.162	-0.0	-0.0	-0.0	-2.497894287109375	12.197044372558594	-330.0442199707031	1.71552574634552	-11.26034164428711	-335.0673828125	-0.0	-0.0	-0.0	-0.0	-0.0	-0.0	83480.921875	-1604.57080078125	-4811.78173828125
0.1625	-0.0	-0.0	-0.0	-2.6620934009552	11.989201545715332	-329.1012878417969	1.685504913330078	-11.02534294128418	-333.4398193359375	-0.0	-0.0	-0.0	-0.0	-0.0	-0.0	83400.9140625	-1490.0970458984375	-4693.51318359375
0.163	-0.0	-0.0	-0.0	-3.137294054031372	12.923908233642578	-329.9291381835937	2.084933996200561	-11.187260627746582	-332.6263122558594	-0.0	-0.0	-0.0	-0.0	-0.0	-0.0	83530.4375	-1797.5721435546875	-4485.59912109375
0.1635	-0.0	-0.0	-0.0	-3.166987419128418	13.443840026855469	-329.8702087402344	2.4839019775390625	-11.525936126708984	-332.21795654296875	-0.0	-0.0	-0.0	-0.0	-0.0	-0.0	83197.015625	-1765.828125	-4608.9560546875
0.164	-0.0	-0.0	-0.0	-3.1967923641204834	13.636951446533203	-330.34033203125	2.439358949661255	-10.99623680114746	-333.32537841796875	-0.0	-0.0	-0.0	-0.0	-0.0	-0.0	83245.4765625	-1962.03076171875	-4416.203125
0.1645	-0.0	-0.0	-0.0	-3.2860653400421143	13.741661071777344	-330.6347045898437	2.77935528755188	-10.672327995300291	-332.392333984375	-0.0	-0.0	-0.0	-0.0	-0.0	-0.0	83017.890625	-1953.2032470703125	-4302.01953125
0.165	-0.0	-0.0	-0.0	-3.1356778144836426	13.058271408081056	-329.81207275390625	2.8679113388061523	-10.112229347229004	-330.8187866210937	-0.0	-0.0	-0.0	-0.0	-0.0	-0.0	83183.84375	-2055.5888671875	-4326.6025390625
0.1655	-0.0	-0.0	-0.0	-3.4191484451293945	12.9984769821167	-329.5746154785156	3.253274440765381	-10.201969146728516	-331.1735534667969	-0.0	-0.0	-0.0	-0.0	-0.0	-0.0	82782.15625	-2034.3294677734373	-4222.82470703125
0.166	-0.0	-0.0	-0.0	-3.419020414352417	12.936260223388672	-329.6977233886719	3.2224855422973637	-9.996745109558104	-330.1836853027344	-0.0	-0.0	-0.0	-0.0	-0.0	-0.0	82891.4375	-2025.6097412109373	-4138.71875
0.1665	-0.0	-0.0	-0.0	-3.165666341781616	12.745647430419922	-329.7557678222656	3.60591721534729	-9.41933250427246	-330.7031555175781	-0.0	-0.0	-0.0	-0.0	-0.0	-0.0	82981.328125	-2227.439453125	-3994.8623046875
0.167	-0.0	-0.0	-0.0	-3.0618836879730225	12.98433780670166	-328.9242858886719	3.694350719451904	-9.464659690856934	-329.7680053710937	-0.0	-0.0	-0.0	-0.0	-0.0	-0.0	82563.7890625	-2250.87744140625	-3921.181640625
0.1675	-0.0	-0.0	-0.0	-2.66201400756836	12.563986778259276	-328.8671569824219	4.318346977233887	-9.627063751220703	-328.9008178710937	-0.0	-0.0	-0.0	-0.0	-0.0	-0.0	82627.515625	-2409.625	-3821.273681640625
0.168	-0.0	-0.0	-0.0	-3.0008413791656494	12.581597328186035	-327.5667419433594	4.4959235191345215	-9.185455322265623	-329.5023498535156	-0.0	-0.0	-0.0	-0.0	-0.0	-0.0	82659.015625	-2334.33544921875	-3677.476318359375
0.1685	-0.0	-0.0	-0.0	-2.8731400966644287	12.159941673278809	-329.7579345703125	4.794484615325928	-8.832168579101562	-329.8373107910156	-0.0	-0.0	-0.0	-0.0	-0.0	-0.0	82393.625	-2315.091796875	-3528.8544921875
0.169	-0.0	-0.0	-0.0	-2.272513628005981	12.285924911499023	-327.5279541015625	4.40292501449585	-8.553240776062012	-328.27569580078125	-0.0	-0.0	-0.0	-0.0	-0.0	-0.0	82591.96875	-2358.2734375	-3500.9248046875
